<svg width="140" height="57" viewBox="0 0 140 57" fill="none" xmlns="http://www.w3.org/2000/svg">
<path fill-rule="evenodd" clip-rule="evenodd" d="M35.5517 19.7941L35.8029 20.2425C36.1191 20.7875 36.2861 21.4062 36.2872 22.0362V35.9377C36.282 36.5672 36.1152 37.1848 35.8029 37.7314L35.5338 38.1799C35.2266 38.7288 34.7733 39.182 34.2245 39.4893L22.1884 46.4489C21.6434 46.7651 21.0248 46.9321 20.3947 46.9332H19.8925C19.2615 46.9392 18.641 46.7716 18.0987 46.4489L6.04486 39.5072C5.50761 39.1847 5.05792 38.7351 4.73543 38.1978L4.48431 37.7494C4.16816 37.2043 4.00112 36.5857 4 35.9556V22.0541C4.00112 21.4241 4.16816 20.8054 4.48431 20.2605L4.73543 19.8121C5.04979 19.2685 5.50131 18.8169 6.04486 18.5026L18.0808 11.5429C18.6258 11.2268 19.2444 11.0597 19.8745 11.0586H20.3947C21.0248 11.0597 21.6434 11.2268 22.1884 11.5429L34.2245 18.4847C34.7711 18.8011 35.2279 19.2518 35.5517 19.7941ZM20.3947 14.646H19.8745L9.38122 20.7088L20.1436 26.9151L30.906 20.7088L20.3947 14.646ZM32.4306 36.3862L21.9373 42.4491V30.0364L32.6997 23.8122V35.9378L32.4306 36.3862ZM83.0633 37.6061H79.3438V17.9755H83.0633V37.6061ZM49.5 38.0269H53.6586V30.8978H55.4667L59.8836 38.0269H64.3263L59.4445 30.1747C61.6142 29.5289 63.2415 28.0566 63.2415 25.267V25.1636C63.2415 21.3409 60.4777 19.5586 56.1124 19.5586H49.5V38.0269ZM53.6586 28.0566V22.7615H56.0091C58.0239 22.7615 59.1604 23.4073 59.1604 25.2928V25.3961C59.1604 27.1784 58.1014 28.0566 56.0091 28.0566H53.6586ZM71.0806 37.8895C74.7742 37.8895 77.0989 36.2623 77.538 33.3435H73.9993C73.7668 34.48 72.9145 35.2291 71.1839 35.2291C69.1433 35.2291 67.9294 33.9376 67.826 31.6904H77.5639V30.6572C77.5639 25.827 74.4643 23.7865 70.9772 23.7865C67.0511 23.7865 64.029 26.5503 64.029 30.8122V31.0188C64.029 35.3324 66.9994 37.8895 71.0806 37.8895ZM67.8777 29.3915C68.1618 27.4801 69.2983 26.3695 70.9772 26.3695C72.7595 26.3695 73.7927 27.351 73.9219 29.3915H67.8777ZM90.1985 37.8906C92.4201 37.8906 93.7886 36.8574 94.486 35.4885V37.6065H98.2056V24.0975H94.486V32.0273C94.486 34.0162 93.2461 34.9977 91.6711 34.9977C90.0698 34.9977 89.32 34.1195 89.32 32.2856V24.0975H85.6009V32.8022C85.6009 36.3408 87.5639 37.8906 90.1985 37.8906ZM104.491 37.6054H100.745V24.0964H104.491V26.1628C105.162 24.8971 106.608 23.7865 108.623 23.7865C110.406 23.7865 111.749 24.5356 112.395 26.137C113.479 24.5097 115.236 23.7865 116.94 23.7865C119.446 23.7865 121.383 25.3621 121.383 28.9525V37.6054H117.664V29.3657C117.664 27.6351 116.888 26.8602 115.545 26.8602C114.099 26.8602 112.937 27.7901 112.937 29.624V37.6054H109.217V29.3657C109.217 27.6351 108.417 26.8602 107.099 26.8602C105.653 26.8602 104.491 27.7901 104.491 29.624V37.6054ZM130.031 37.8895C133.726 37.8895 136.051 36.2623 136.489 33.3435H132.95C132.718 34.48 131.865 35.2291 130.135 35.2291C128.094 35.2291 126.881 33.9376 126.777 31.6904H136.515V30.6572C136.515 25.827 133.415 23.7865 129.928 23.7865C126.002 23.7865 122.98 26.5503 122.98 30.8122V31.0188C122.98 35.3324 125.95 37.8895 130.031 37.8895ZM126.829 29.3915C127.113 27.4801 128.25 26.3695 129.928 26.3695C131.711 26.3695 132.744 27.351 132.873 29.3915H126.829Z" fill="url(#paint0_linear_7624_4453)"/>
<path fill-rule="evenodd" clip-rule="evenodd" d="M35.5517 19.7941L35.8029 20.2425C36.1191 20.7875 36.2861 21.4062 36.2872 22.0362V35.9377C36.282 36.5672 36.1152 37.1848 35.8029 37.7314L35.5338 38.1799C35.2266 38.7288 34.7733 39.182 34.2245 39.4893L22.1884 46.4489C21.6434 46.7651 21.0248 46.9321 20.3947 46.9332H19.8925C19.2615 46.9392 18.641 46.7716 18.0987 46.4489L6.04486 39.5072C5.50761 39.1847 5.05792 38.7351 4.73543 38.1978L4.48431 37.7494C4.16816 37.2043 4.00112 36.5857 4 35.9556V22.0541C4.00112 21.4241 4.16816 20.8054 4.48431 20.2605L4.73543 19.8121C5.04979 19.2685 5.50131 18.8169 6.04486 18.5026L18.0808 11.5429C18.6258 11.2268 19.2444 11.0597 19.8745 11.0586H20.3947C21.0248 11.0597 21.6434 11.2268 22.1884 11.5429L34.2245 18.4847C34.7711 18.8011 35.2279 19.2518 35.5517 19.7941ZM20.3947 14.646H19.8745L9.38122 20.7088L20.1436 26.9151L30.906 20.7088L20.3947 14.646ZM32.4306 36.3862L21.9373 42.4491V30.0364L32.6997 23.8122V35.9378L32.4306 36.3862ZM83.0633 37.6061H79.3438V17.9755H83.0633V37.6061ZM49.5 38.0269H53.6586V30.8978H55.4667L59.8836 38.0269H64.3263L59.4445 30.1747C61.6142 29.5289 63.2415 28.0566 63.2415 25.267V25.1636C63.2415 21.3409 60.4777 19.5586 56.1124 19.5586H49.5V38.0269ZM53.6586 28.0566V22.7615H56.0091C58.0239 22.7615 59.1604 23.4073 59.1604 25.2928V25.3961C59.1604 27.1784 58.1014 28.0566 56.0091 28.0566H53.6586ZM71.0806 37.8895C74.7742 37.8895 77.0989 36.2623 77.538 33.3435H73.9993C73.7668 34.48 72.9145 35.2291 71.1839 35.2291C69.1433 35.2291 67.9294 33.9376 67.826 31.6904H77.5639V30.6572C77.5639 25.827 74.4643 23.7865 70.9772 23.7865C67.0511 23.7865 64.029 26.5503 64.029 30.8122V31.0188C64.029 35.3324 66.9994 37.8895 71.0806 37.8895ZM67.8777 29.3915C68.1618 27.4801 69.2983 26.3695 70.9772 26.3695C72.7595 26.3695 73.7927 27.351 73.9219 29.3915H67.8777ZM90.1985 37.8906C92.4201 37.8906 93.7886 36.8574 94.486 35.4885V37.6065H98.2056V24.0975H94.486V32.0273C94.486 34.0162 93.2461 34.9977 91.6711 34.9977C90.0698 34.9977 89.32 34.1195 89.32 32.2856V24.0975H85.6009V32.8022C85.6009 36.3408 87.5639 37.8906 90.1985 37.8906ZM104.491 37.6054H100.745V24.0964H104.491V26.1628C105.162 24.8971 106.608 23.7865 108.623 23.7865C110.406 23.7865 111.749 24.5356 112.395 26.137C113.479 24.5097 115.236 23.7865 116.94 23.7865C119.446 23.7865 121.383 25.3621 121.383 28.9525V37.6054H117.664V29.3657C117.664 27.6351 116.888 26.8602 115.545 26.8602C114.099 26.8602 112.937 27.7901 112.937 29.624V37.6054H109.217V29.3657C109.217 27.6351 108.417 26.8602 107.099 26.8602C105.653 26.8602 104.491 27.7901 104.491 29.624V37.6054ZM130.031 37.8895C133.726 37.8895 136.051 36.2623 136.489 33.3435H132.95C132.718 34.48 131.865 35.2291 130.135 35.2291C128.094 35.2291 126.881 33.9376 126.777 31.6904H136.515V30.6572C136.515 25.827 133.415 23.7865 129.928 23.7865C126.002 23.7865 122.98 26.5503 122.98 30.8122V31.0188C122.98 35.3324 125.95 37.8895 130.031 37.8895ZM126.829 29.3915C127.113 27.4801 128.25 26.3695 129.928 26.3695C131.711 26.3695 132.744 27.351 132.873 29.3915H126.829Z" fill="url(#paint1_linear_7624_4453)"/>
<defs>
<linearGradient id="paint0_linear_7624_4453" x1="8.49204" y1="18.2965" x2="134.414" y2="48.955" gradientUnits="userSpaceOnUse">
<stop stop-color="#FF4207"/>
<stop offset="1" stop-color="#FFB38D"/>
</linearGradient>
<linearGradient id="paint1_linear_7624_4453" x1="162.695" y1="46.9334" x2="-1.70979" y2="9.18097" gradientUnits="userSpaceOnUse">
<stop stop-color="#F6D5AB"/>
<stop offset="0.457677" stop-color="#E56805"/>
<stop offset="0.745" stop-color="#CF3C0B"/>
<stop offset="1" stop-color="#611E1A"/>
</linearGradient>
</defs>
</svg>
