<svg width="140" height="57" viewBox="0 0 140 57" fill="none" xmlns="http://www.w3.org/2000/svg">
<path fill-rule="evenodd" clip-rule="evenodd" d="M38.5702 17.3086L27.0607 39.8086H16.25L21.0667 30.4836H20.8506C16.8769 35.6421 10.9479 39.038 2.5 39.8086V30.6127C2.5 30.6127 7.90431 30.2935 11.0814 26.9533H2.5V17.3088H12.1445V25.2412L12.361 25.2404L16.3021 17.3088H23.596V25.1909L23.8124 25.1906L27.9014 17.3086H38.5702Z" fill="url(#paint0_linear_7624_4452)"/>
<path fill-rule="evenodd" clip-rule="evenodd" d="M38.5702 17.3086L27.0607 39.8086H16.25L21.0667 30.4836H20.8506C16.8769 35.6421 10.9479 39.038 2.5 39.8086V30.6127C2.5 30.6127 7.90431 30.2935 11.0814 26.9533H2.5V17.3088H12.1445V25.2412L12.361 25.2404L16.3021 17.3088H23.596V25.1909L23.8124 25.1906L27.9014 17.3086H38.5702Z" fill="url(#paint1_linear_7624_4452)"/>
<path d="M101.333 37.3251H104.439V19.4961H101.333V37.3251Z" fill="url(#paint2_linear_7624_4452)"/>
<path d="M101.333 37.3251H104.439V19.4961H101.333V37.3251Z" fill="url(#paint3_linear_7624_4452)"/>
<path fill-rule="evenodd" clip-rule="evenodd" d="M84.2092 37.143C84.8842 37.4237 85.5707 37.564 86.2686 37.564C87.4214 37.564 88.4531 37.2834 89.3633 36.722C90.2734 36.1608 90.9789 35.3872 91.4796 34.401C91.9802 33.4074 92.2304 32.2809 92.2304 31.0218C92.2304 29.7627 91.9726 28.6363 91.4568 27.6426C90.9409 26.649 90.2242 25.8791 89.3063 25.333C88.3886 24.7792 87.3456 24.5062 86.1774 24.5138C85.4342 24.5138 84.7212 24.6579 84.0384 24.9461C83.3558 25.2344 82.7869 25.6439 82.3318 26.1749C82.2967 26.2153 82.2626 26.2562 82.2294 26.2974V19.5075H79.1119V37.3252H82.2067L82.2004 35.6607C82.2804 35.7588 82.3661 35.8547 82.4569 35.9484C82.9499 36.4567 83.5341 36.8548 84.2092 37.143ZM87.3949 34.2645C86.8867 34.5755 86.3064 34.731 85.6541 34.731C85.0093 34.731 84.4177 34.5717 83.8792 34.2532C83.3406 33.9269 82.9121 33.4833 82.5934 32.9219C82.2824 32.3607 82.1269 31.7234 82.1269 31.0104C82.1194 30.2974 82.2711 29.6603 82.5821 29.099C82.9007 28.5301 83.3292 28.0902 83.8678 27.7792C84.4063 27.4606 85.0018 27.3051 85.6541 27.3127C86.3064 27.3051 86.8867 27.4568 87.3949 27.7678C87.9107 28.0712 88.3051 28.5073 88.5782 29.0762C88.8588 29.6375 88.9992 30.2823 88.9992 31.0104C88.9992 31.7387 88.8588 32.3834 88.5782 32.9447C88.3051 33.506 87.9107 33.9459 87.3949 34.2645Z" fill="url(#paint4_linear_7624_4452)"/>
<path fill-rule="evenodd" clip-rule="evenodd" d="M84.2092 37.143C84.8842 37.4237 85.5707 37.564 86.2686 37.564C87.4214 37.564 88.4531 37.2834 89.3633 36.722C90.2734 36.1608 90.9789 35.3872 91.4796 34.401C91.9802 33.4074 92.2304 32.2809 92.2304 31.0218C92.2304 29.7627 91.9726 28.6363 91.4568 27.6426C90.9409 26.649 90.2242 25.8791 89.3063 25.333C88.3886 24.7792 87.3456 24.5062 86.1774 24.5138C85.4342 24.5138 84.7212 24.6579 84.0384 24.9461C83.3558 25.2344 82.7869 25.6439 82.3318 26.1749C82.2967 26.2153 82.2626 26.2562 82.2294 26.2974V19.5075H79.1119V37.3252H82.2067L82.2004 35.6607C82.2804 35.7588 82.3661 35.8547 82.4569 35.9484C82.9499 36.4567 83.5341 36.8548 84.2092 37.143ZM87.3949 34.2645C86.8867 34.5755 86.3064 34.731 85.6541 34.731C85.0093 34.731 84.4177 34.5717 83.8792 34.2532C83.3406 33.9269 82.9121 33.4833 82.5934 32.9219C82.2824 32.3607 82.1269 31.7234 82.1269 31.0104C82.1194 30.2974 82.2711 29.6603 82.5821 29.099C82.9007 28.5301 83.3292 28.0902 83.8678 27.7792C84.4063 27.4606 85.0018 27.3051 85.6541 27.3127C86.3064 27.3051 86.8867 27.4568 87.3949 27.7678C87.9107 28.0712 88.3051 28.5073 88.5782 29.0762C88.8588 29.6375 88.9992 30.2823 88.9992 31.0104C88.9992 31.7387 88.8588 32.3834 88.5782 32.9447C88.3051 33.506 87.9107 33.9459 87.3949 34.2645Z" fill="url(#paint5_linear_7624_4452)"/>
<path d="M43.0701 20.577H46.6199L49.7954 32.174L53.1736 20.577H56.1318L59.7954 31.9413L62.8447 20.577H66.0987L61.2973 37.3251H58.2367L54.5112 26.2231L51.0914 37.3251H47.9967L43.0701 20.577Z" fill="url(#paint6_linear_7624_4452)"/>
<path d="M43.0701 20.577H46.6199L49.7954 32.174L53.1736 20.577H56.1318L59.7954 31.9413L62.8447 20.577H66.0987L61.2973 37.3251H58.2367L54.5112 26.2231L51.0914 37.3251H47.9967L43.0701 20.577Z" fill="url(#paint7_linear_7624_4452)"/>
<path fill-rule="evenodd" clip-rule="evenodd" d="M71.3413 37.6209C70.1048 37.6285 68.9898 37.3554 67.9962 36.8017C67.01 36.2404 66.2327 35.4629 65.6637 34.4692C65.1024 33.4756 64.8218 32.3416 64.8218 31.0672C64.8218 29.8309 65.11 28.7121 65.6865 27.7109C66.2629 26.7096 67.0442 25.9283 68.0303 25.367C69.0164 24.8057 70.1162 24.5251 71.3298 24.5251C72.6952 24.5251 73.8898 24.8285 74.9138 25.4353C75.9454 26.0421 76.7153 26.903 77.2235 28.018C77.7393 29.1255 77.9252 30.396 77.781 31.8296H68.0352C68.0624 32.4007 68.2049 32.9204 68.4627 33.3884C68.7509 33.9041 69.1529 34.3061 69.6686 34.5944C70.1845 34.8826 70.7609 35.0267 71.3982 35.0267C71.8835 35.0191 72.3349 34.9357 72.752 34.7765C73.1693 34.6096 73.5219 34.3859 73.8102 34.1051C74.106 33.8245 74.3147 33.506 74.436 33.1495H77.69C77.4928 34.0217 77.0984 34.7992 76.5068 35.4819C75.915 36.157 75.1718 36.6841 74.2766 37.0634C73.3817 37.4426 72.4032 37.6285 71.3413 37.6209ZM68.474 28.7007C68.2923 29.0177 68.1663 29.359 68.0962 29.7247H74.5565C74.5097 29.2627 74.367 28.8418 74.1288 28.4618C73.8557 28.0143 73.484 27.6691 73.0138 27.4264C72.5435 27.1761 72.0125 27.0509 71.4209 27.0509C70.7913 27.0509 70.2187 27.1951 69.7028 27.4833C69.187 27.7715 68.7774 28.1773 68.474 28.7007Z" fill="url(#paint8_linear_7624_4452)"/>
<path fill-rule="evenodd" clip-rule="evenodd" d="M71.3413 37.6209C70.1048 37.6285 68.9898 37.3554 67.9962 36.8017C67.01 36.2404 66.2327 35.4629 65.6637 34.4692C65.1024 33.4756 64.8218 32.3416 64.8218 31.0672C64.8218 29.8309 65.11 28.7121 65.6865 27.7109C66.2629 26.7096 67.0442 25.9283 68.0303 25.367C69.0164 24.8057 70.1162 24.5251 71.3298 24.5251C72.6952 24.5251 73.8898 24.8285 74.9138 25.4353C75.9454 26.0421 76.7153 26.903 77.2235 28.018C77.7393 29.1255 77.9252 30.396 77.781 31.8296H68.0352C68.0624 32.4007 68.2049 32.9204 68.4627 33.3884C68.7509 33.9041 69.1529 34.3061 69.6686 34.5944C70.1845 34.8826 70.7609 35.0267 71.3982 35.0267C71.8835 35.0191 72.3349 34.9357 72.752 34.7765C73.1693 34.6096 73.5219 34.3859 73.8102 34.1051C74.106 33.8245 74.3147 33.506 74.436 33.1495H77.69C77.4928 34.0217 77.0984 34.7992 76.5068 35.4819C75.915 36.157 75.1718 36.6841 74.2766 37.0634C73.3817 37.4426 72.4032 37.6285 71.3413 37.6209ZM68.474 28.7007C68.2923 29.0177 68.1663 29.359 68.0962 29.7247H74.5565C74.5097 29.2627 74.367 28.8418 74.1288 28.4618C73.8557 28.0143 73.484 27.6691 73.0138 27.4264C72.5435 27.1761 72.0125 27.0509 71.4209 27.0509C70.7913 27.0509 70.2187 27.1951 69.7028 27.4833C69.187 27.7715 68.7774 28.1773 68.474 28.7007Z" fill="url(#paint9_linear_7624_4452)"/>
<path d="M94.5178 24.7868C94.5178 23.7704 94.749 22.8677 95.2118 22.0789C95.6744 21.2824 96.323 20.6642 97.1574 20.2243C97.9993 19.7768 98.9816 19.5454 100.104 19.5303V22.2951C99.5808 22.3026 99.1333 22.4126 98.7616 22.625C98.3975 22.8298 98.1169 23.1294 97.9196 23.5239C97.7381 23.887 97.6401 24.308 97.6258 24.7868H100.036V27.4151H97.6239V37.3251H94.5178V27.4151H92.5153V24.7868H94.5178Z" fill="url(#paint10_linear_7624_4452)"/>
<path d="M94.5178 24.7868C94.5178 23.7704 94.749 22.8677 95.2118 22.0789C95.6744 21.2824 96.323 20.6642 97.1574 20.2243C97.9993 19.7768 98.9816 19.5454 100.104 19.5303V22.2951C99.5808 22.3026 99.1333 22.4126 98.7616 22.625C98.3975 22.8298 98.1169 23.1294 97.9196 23.5239C97.7381 23.887 97.6401 24.308 97.6258 24.7868H100.036V27.4151H97.6239V37.3251H94.5178V27.4151H92.5153V24.7868H94.5178Z" fill="url(#paint11_linear_7624_4452)"/>
<path fill-rule="evenodd" clip-rule="evenodd" d="M112.335 37.5981C111.068 37.5981 109.934 37.3212 108.933 36.7676C107.939 36.2062 107.158 35.4326 106.589 34.4464C106.028 33.4528 105.747 32.3264 105.747 31.0672C105.747 29.8006 106.028 28.6703 106.589 27.6767C107.158 26.6754 107.939 25.8979 108.933 25.3442C109.934 24.7905 111.068 24.5136 112.335 24.5136C113.609 24.5136 114.747 24.7905 115.748 25.3442C116.757 25.8979 117.542 26.6716 118.103 27.6653C118.665 28.6589 118.949 29.7929 118.957 31.0672C118.949 32.3264 118.665 33.4528 118.103 34.4464C117.55 35.4326 116.768 36.2062 115.759 36.7676C114.751 37.3212 113.609 37.5981 112.335 37.5981ZM112.335 34.7423C113.002 34.7423 113.594 34.5906 114.11 34.2872C114.626 33.9762 115.024 33.5438 115.304 32.9901C115.585 32.4288 115.725 31.7878 115.725 31.0672C115.725 30.3391 115.585 29.6943 115.304 29.133C115.024 28.5717 114.626 28.1394 114.11 27.836C113.594 27.525 113.002 27.3695 112.335 27.3695C111.675 27.3695 111.087 27.525 110.571 27.836C110.063 28.1394 109.669 28.5717 109.388 29.133C109.107 29.6943 108.971 30.3391 108.978 31.0672C108.978 31.7878 109.119 32.4288 109.399 32.9901C109.688 33.5438 110.082 33.9762 110.583 34.2872C111.091 34.5906 111.675 34.7423 112.335 34.7423Z" fill="url(#paint12_linear_7624_4452)"/>
<path fill-rule="evenodd" clip-rule="evenodd" d="M112.335 37.5981C111.068 37.5981 109.934 37.3212 108.933 36.7676C107.939 36.2062 107.158 35.4326 106.589 34.4464C106.028 33.4528 105.747 32.3264 105.747 31.0672C105.747 29.8006 106.028 28.6703 106.589 27.6767C107.158 26.6754 107.939 25.8979 108.933 25.3442C109.934 24.7905 111.068 24.5136 112.335 24.5136C113.609 24.5136 114.747 24.7905 115.748 25.3442C116.757 25.8979 117.542 26.6716 118.103 27.6653C118.665 28.6589 118.949 29.7929 118.957 31.0672C118.949 32.3264 118.665 33.4528 118.103 34.4464C117.55 35.4326 116.768 36.2062 115.759 36.7676C114.751 37.3212 113.609 37.5981 112.335 37.5981ZM112.335 34.7423C113.002 34.7423 113.594 34.5906 114.11 34.2872C114.626 33.9762 115.024 33.5438 115.304 32.9901C115.585 32.4288 115.725 31.7878 115.725 31.0672C115.725 30.3391 115.585 29.6943 115.304 29.133C115.024 28.5717 114.626 28.1394 114.11 27.836C113.594 27.525 113.002 27.3695 112.335 27.3695C111.675 27.3695 111.087 27.525 110.571 27.836C110.063 28.1394 109.669 28.5717 109.388 29.133C109.107 29.6943 108.971 30.3391 108.978 31.0672C108.978 31.7878 109.119 32.4288 109.399 32.9901C109.688 33.5438 110.082 33.9762 110.583 34.2872C111.091 34.5906 111.675 34.7423 112.335 34.7423Z" fill="url(#paint13_linear_7624_4452)"/>
<path d="M122.313 24.7868H118.854L122.598 37.3251H125.624L128.086 29.3169L130.744 37.3251H133.725L137.48 24.7868H134.351L132.221 32.5911L129.867 24.7868H126.841L124.499 32.763L122.313 24.7868Z" fill="url(#paint14_linear_7624_4452)"/>
<path d="M122.313 24.7868H118.854L122.598 37.3251H125.624L128.086 29.3169L130.744 37.3251H133.725L137.48 24.7868H134.351L132.221 32.5911L129.867 24.7868H126.841L124.499 32.763L122.313 24.7868Z" fill="url(#paint15_linear_7624_4452)"/>
<defs>
<linearGradient id="paint0_linear_7624_4452" x1="7.07559" y1="21.8481" x2="124.572" y2="68.3085" gradientUnits="userSpaceOnUse">
<stop stop-color="#FF4207"/>
<stop offset="1" stop-color="#FFB38D"/>
</linearGradient>
<linearGradient id="paint1_linear_7624_4452" x1="164.147" y1="39.8086" x2="9.3795" y2="-17.9105" gradientUnits="userSpaceOnUse">
<stop stop-color="#F6D5AB"/>
<stop offset="0.457677" stop-color="#E56805"/>
<stop offset="0.745" stop-color="#CF3C0B"/>
<stop offset="1" stop-color="#611E1A"/>
</linearGradient>
<linearGradient id="paint2_linear_7624_4452" x1="7.07559" y1="21.8481" x2="124.572" y2="68.3085" gradientUnits="userSpaceOnUse">
<stop stop-color="#FF4207"/>
<stop offset="1" stop-color="#FFB38D"/>
</linearGradient>
<linearGradient id="paint3_linear_7624_4452" x1="164.147" y1="39.8086" x2="9.3795" y2="-17.9105" gradientUnits="userSpaceOnUse">
<stop stop-color="#F6D5AB"/>
<stop offset="0.457677" stop-color="#E56805"/>
<stop offset="0.745" stop-color="#CF3C0B"/>
<stop offset="1" stop-color="#611E1A"/>
</linearGradient>
<linearGradient id="paint4_linear_7624_4452" x1="7.07559" y1="21.8481" x2="124.572" y2="68.3085" gradientUnits="userSpaceOnUse">
<stop stop-color="#FF4207"/>
<stop offset="1" stop-color="#FFB38D"/>
</linearGradient>
<linearGradient id="paint5_linear_7624_4452" x1="164.147" y1="39.8086" x2="9.3795" y2="-17.9105" gradientUnits="userSpaceOnUse">
<stop stop-color="#F6D5AB"/>
<stop offset="0.457677" stop-color="#E56805"/>
<stop offset="0.745" stop-color="#CF3C0B"/>
<stop offset="1" stop-color="#611E1A"/>
</linearGradient>
<linearGradient id="paint6_linear_7624_4452" x1="7.07559" y1="21.8481" x2="124.572" y2="68.3085" gradientUnits="userSpaceOnUse">
<stop stop-color="#FF4207"/>
<stop offset="1" stop-color="#FFB38D"/>
</linearGradient>
<linearGradient id="paint7_linear_7624_4452" x1="164.147" y1="39.8086" x2="9.3795" y2="-17.9105" gradientUnits="userSpaceOnUse">
<stop stop-color="#F6D5AB"/>
<stop offset="0.457677" stop-color="#E56805"/>
<stop offset="0.745" stop-color="#CF3C0B"/>
<stop offset="1" stop-color="#611E1A"/>
</linearGradient>
<linearGradient id="paint8_linear_7624_4452" x1="7.07559" y1="21.8481" x2="124.572" y2="68.3085" gradientUnits="userSpaceOnUse">
<stop stop-color="#FF4207"/>
<stop offset="1" stop-color="#FFB38D"/>
</linearGradient>
<linearGradient id="paint9_linear_7624_4452" x1="164.147" y1="39.8086" x2="9.3795" y2="-17.9105" gradientUnits="userSpaceOnUse">
<stop stop-color="#F6D5AB"/>
<stop offset="0.457677" stop-color="#E56805"/>
<stop offset="0.745" stop-color="#CF3C0B"/>
<stop offset="1" stop-color="#611E1A"/>
</linearGradient>
<linearGradient id="paint10_linear_7624_4452" x1="7.07559" y1="21.8481" x2="124.572" y2="68.3085" gradientUnits="userSpaceOnUse">
<stop stop-color="#FF4207"/>
<stop offset="1" stop-color="#FFB38D"/>
</linearGradient>
<linearGradient id="paint11_linear_7624_4452" x1="164.147" y1="39.8086" x2="9.3795" y2="-17.9105" gradientUnits="userSpaceOnUse">
<stop stop-color="#F6D5AB"/>
<stop offset="0.457677" stop-color="#E56805"/>
<stop offset="0.745" stop-color="#CF3C0B"/>
<stop offset="1" stop-color="#611E1A"/>
</linearGradient>
<linearGradient id="paint12_linear_7624_4452" x1="7.07559" y1="21.8481" x2="124.572" y2="68.3085" gradientUnits="userSpaceOnUse">
<stop stop-color="#FF4207"/>
<stop offset="1" stop-color="#FFB38D"/>
</linearGradient>
<linearGradient id="paint13_linear_7624_4452" x1="164.147" y1="39.8086" x2="9.3795" y2="-17.9105" gradientUnits="userSpaceOnUse">
<stop stop-color="#F6D5AB"/>
<stop offset="0.457677" stop-color="#E56805"/>
<stop offset="0.745" stop-color="#CF3C0B"/>
<stop offset="1" stop-color="#611E1A"/>
</linearGradient>
<linearGradient id="paint14_linear_7624_4452" x1="7.07559" y1="21.8481" x2="124.572" y2="68.3085" gradientUnits="userSpaceOnUse">
<stop stop-color="#FF4207"/>
<stop offset="1" stop-color="#FFB38D"/>
</linearGradient>
<linearGradient id="paint15_linear_7624_4452" x1="164.147" y1="39.8086" x2="9.3795" y2="-17.9105" gradientUnits="userSpaceOnUse">
<stop stop-color="#F6D5AB"/>
<stop offset="0.457677" stop-color="#E56805"/>
<stop offset="0.745" stop-color="#CF3C0B"/>
<stop offset="1" stop-color="#611E1A"/>
</linearGradient>
</defs>
</svg>
