<svg width="68" height="54" viewBox="0 0 68 54" fill="none" xmlns="http://www.w3.org/2000/svg">
<g clip-path="url(#clip0_7612_3898)">
<path d="M0.172039 29.7102L0.126291 32.0235C0.0564671 35.5542 2.82805 38.4736 6.31679 38.5442C9.80555 38.6148 12.6903 35.8097 12.7602 32.279L12.8059 29.9657C12.8758 26.4349 10.1041 23.5155 6.61539 23.4449C3.12666 23.3744 0.241863 26.1794 0.172039 29.7102Z" fill="#FF634A"/>
<path d="M54.0341 45.0349L53.9884 47.3482C53.9185 50.8789 56.6903 53.7983 60.1786 53.8689C63.6676 53.9395 66.5525 51.1344 66.6225 47.6037L66.6682 45.2904C66.7376 41.7596 63.9662 38.8402 60.4772 38.7696C56.9889 38.6991 54.104 41.5041 54.0341 45.0349Z" fill="#FF634A"/>
<path d="M28.9736 6.39088L28.5325 31.9499C28.4715 35.4802 31.2499 38.3919 34.7381 38.4535C38.2263 38.515 41.1035 35.7032 41.1644 32.1729L41.6055 6.61387C41.6665 3.08366 38.8881 0.171944 35.3999 0.110367C31.9117 0.0487904 29.0345 2.86067 28.9736 6.39088Z" fill="#FF634A"/>
<path d="M43.4076 16.0888L43.1337 31.9568C43.0728 35.4869 45.8512 38.3987 49.3394 38.4602C52.8276 38.5218 55.7047 35.7099 55.7657 32.1797L56.0396 16.3118C56.1005 12.7815 53.3221 9.86984 49.8339 9.80823C46.3457 9.74667 43.4685 12.5585 43.4076 16.0888Z" fill="#FF634A"/>
<path d="M14.4726 16.7718L14.2106 31.9495C14.1497 35.4797 16.9281 38.3914 20.4163 38.453C23.9045 38.5146 26.7817 35.7026 26.8426 32.1725L27.1046 16.9948C27.1655 13.4646 24.3871 10.5529 20.8989 10.4913C17.4107 10.4297 14.5335 13.2416 14.4726 16.7718Z" fill="#FF634A"/>
<path d="M9.64863 43.5301V51.0618H7.92861V47.9684H4.54187V51.0618H2.82189V43.5301H4.54187V46.498H7.92861V43.5301H9.64863Z" fill="#FF634A"/>
<path d="M17.6277 43.5301H19.3476V51.0618H17.6277V43.5301Z" fill="#FF634A"/>
<path d="M32.3629 47.1794H33.9411V50.219C33.5173 50.5392 33.0397 50.7793 32.5314 50.9273C32.0125 51.0944 31.4712 51.1791 30.9267 51.1784C30.2017 51.1887 29.4856 51.0161 28.8432 50.6763C28.2455 50.3675 27.7427 49.8993 27.3892 49.3224C27.1212 48.8758 26.9462 48.3787 26.8748 47.8613C26.8035 47.3439 26.8373 46.8173 26.9743 46.3136C27.1112 45.81 27.3484 45.3399 27.6713 44.9322C27.9942 44.5245 28.396 44.1878 28.8521 43.9426C29.5035 43.6012 30.2285 43.4286 30.9621 43.4404C31.5697 43.434 32.1724 43.5499 32.7353 43.7812C33.2537 43.9874 33.7136 44.32 34.0741 44.7495L32.9658 45.7358C32.7269 45.4563 32.4316 45.2317 32.0998 45.077C31.768 44.9224 31.4073 44.8413 31.0419 44.8392C30.6016 44.8302 30.166 44.9318 29.7741 45.1351C29.4062 45.3305 29.0994 45.6254 28.8875 45.9869C28.6771 46.3738 28.5701 46.8096 28.5772 47.2511C28.5716 47.6868 28.6785 48.1165 28.8875 48.4975C29.0943 48.863 29.4025 49.1592 29.7741 49.3492C30.1567 49.5621 30.5876 49.6703 31.0242 49.6631C31.4909 49.6673 31.9511 49.5533 32.3629 49.3313V47.1794Z" fill="#FF634A"/>
<path d="M48.5789 43.5301V51.0618H46.85V47.9684H43.4455V51.0618H41.6723V43.5301H43.4455V46.498H46.8234V43.5301H48.5789Z" fill="#FF634A"/>
</g>
<defs>
<clipPath id="clip0_7612_3898">
<rect width="67.1707" height="54" fill="white"/>
</clipPath>
</defs>
</svg>
