<svg width="17" height="12" viewBox="0 0 17 12" fill="none" xmlns="http://www.w3.org/2000/svg">
<path fill-rule="evenodd" clip-rule="evenodd" d="M16.8216 3.06867L7.79352 11.7428C7.4384 12.084 6.86325 12.086 6.50568 11.7471L0.178434 5.75153C-0.0594779 5.52294 -0.0594779 5.15233 0.178434 4.92375L2.33229 2.85431C2.5702 2.62573 2.95594 2.62573 3.19385 2.85431L6.67293 6.19702C6.91083 6.42561 7.29656 6.42561 7.53447 6.19703L13.8062 0.171431C14.0441 -0.057147 14.4298 -0.0571432 14.6677 0.17144L16.8216 2.24088C17.0595 2.46947 17.0595 2.84008 16.8216 3.06867Z" fill="url(#paint0_linear_10450_908)"/>
<path fill-rule="evenodd" clip-rule="evenodd" d="M16.8216 3.06867L7.79352 11.7428C7.4384 12.084 6.86325 12.086 6.50568 11.7471L0.178434 5.75153C-0.0594779 5.52294 -0.0594779 5.15233 0.178434 4.92375L2.33229 2.85431C2.5702 2.62573 2.95594 2.62573 3.19385 2.85431L6.67293 6.19702C6.91083 6.42561 7.29656 6.42561 7.53447 6.19703L13.8062 0.171431C14.0441 -0.057147 14.4298 -0.0571432 14.6677 0.17144L16.8216 2.24088C17.0595 2.46947 17.0595 2.84008 16.8216 3.06867Z" fill="url(#paint1_linear_10450_908)"/>
<defs>
<linearGradient id="paint0_linear_10450_908" x1="0.576271" y1="2.42105" x2="17.5401" y2="4.00509" gradientUnits="userSpaceOnUse">
<stop stop-color="#FF4207"/>
<stop offset="1" stop-color="#FFB38D"/>
</linearGradient>
<linearGradient id="paint1_linear_10450_908" x1="20.3585" y1="12" x2="-1.67375" y2="10.0596" gradientUnits="userSpaceOnUse">
<stop stop-color="#F6D5AB"/>
<stop offset="0.457677" stop-color="#E56805"/>
<stop offset="0.745" stop-color="#CF3C0B"/>
<stop offset="1" stop-color="#611E1A"/>
</linearGradient>
</defs>
</svg>
