<svg width="8" height="8" viewBox="0 0 8 8" fill="none" xmlns="http://www.w3.org/2000/svg">
<path d="M7.76763 1.30862C7.90628 1.16506 7.983 0.972798 7.98127 0.77323C7.97953 0.573662 7.89948 0.382759 7.75836 0.241638C7.61724 0.100517 7.42634 0.0204688 7.22677 0.0187346C7.0272 0.0170004 6.83494 0.0937192 6.69138 0.232367L4 2.92375L1.30862 0.232367C1.2384 0.15967 1.15442 0.101685 1.06155 0.0617944C0.968692 0.0219039 0.868815 0.000906952 0.767752 2.87383e-05C0.666689 -0.000849475 0.566462 0.0184085 0.472921 0.0566791C0.37938 0.0949498 0.294397 0.151467 0.222932 0.222932C0.151467 0.294397 0.0949498 0.37938 0.0566791 0.472921C0.0184085 0.566462 -0.000849475 0.666689 2.87383e-05 0.767752C0.000906952 0.868815 0.0219039 0.968692 0.0617944 1.06155C0.101685 1.15442 0.15967 1.2384 0.232367 1.30862L2.92375 4L0.232367 6.69138C0.15967 6.7616 0.101685 6.84558 0.0617944 6.93845C0.0219039 7.03131 0.000906952 7.13118 2.87383e-05 7.23225C-0.000849475 7.33331 0.0184085 7.43354 0.0566791 7.52708C0.0949498 7.62062 0.151467 7.7056 0.222932 7.77707C0.294397 7.84853 0.37938 7.90505 0.472921 7.94332C0.566462 7.98159 0.666689 8.00085 0.767752 7.99997C0.868815 7.99909 0.968692 7.9781 1.06155 7.9382C1.15442 7.89831 1.2384 7.84033 1.30862 7.76763L4 5.07625L6.69138 7.76763C6.7616 7.84033 6.84558 7.89831 6.93845 7.9382C7.03131 7.9781 7.13118 7.99909 7.23225 7.99997C7.33331 8.00085 7.43354 7.98159 7.52708 7.94332C7.62062 7.90505 7.7056 7.84853 7.77707 7.77707C7.84853 7.7056 7.90505 7.62062 7.94332 7.52708C7.98159 7.43354 8.00085 7.33331 7.99997 7.23225C7.99909 7.13118 7.9781 7.03131 7.9382 6.93845C7.89831 6.84558 7.84033 6.7616 7.76763 6.69138L5.07625 4L7.76763 1.30862Z" fill="white"/>
</svg>
